<svg width="20" height="20" viewBox="0 0 20 20" fill="none" xmlns="http://www.w3.org/2000/svg">
<mask id="mask0_2284_37572" style="mask-type:alpha" maskUnits="userSpaceOnUse" x="2" y="4" width="16" height="12">
<path fill-rule="evenodd" clip-rule="evenodd" d="M3.75033 7.50033H5.41699C5.87533 7.50033 6.25033 7.12533 6.25033 6.66699V5.00033C6.25033 4.54199 5.87533 4.16699 5.41699 4.16699H3.75033C3.29199 4.16699 2.91699 4.54199 2.91699 5.00033V6.66699C2.91699 7.12533 3.29199 7.50033 3.75033 7.50033ZM5.41699 11.667H3.75033C3.29199 11.667 2.91699 11.292 2.91699 10.8337V9.16699C2.91699 8.70866 3.29199 8.33366 3.75033 8.33366H5.41699C5.87533 8.33366 6.25033 8.70866 6.25033 9.16699V10.8337C6.25033 11.292 5.87533 11.667 5.41699 11.667ZM5.41699 15.8337H3.75033C3.29199 15.8337 2.91699 15.4587 2.91699 15.0003V13.3337C2.91699 12.8753 3.29199 12.5003 3.75033 12.5003H5.41699C5.87533 12.5003 6.25033 12.8753 6.25033 13.3337V15.0003C6.25033 15.4587 5.87533 15.8337 5.41699 15.8337ZM16.2503 11.667H7.91699C7.45866 11.667 7.08366 11.292 7.08366 10.8337V9.16699C7.08366 8.70866 7.45866 8.33366 7.91699 8.33366H16.2503C16.7087 8.33366 17.0837 8.70866 17.0837 9.16699V10.8337C17.0837 11.292 16.7087 11.667 16.2503 11.667ZM7.91699 15.8337H16.2503C16.7087 15.8337 17.0837 15.4587 17.0837 15.0003V13.3337C17.0837 12.8753 16.7087 12.5003 16.2503 12.5003H7.91699C7.45866 12.5003 7.08366 12.8753 7.08366 13.3337V15.0003C7.08366 15.4587 7.45866 15.8337 7.91699 15.8337ZM7.08366 6.66699V5.00033C7.08366 4.54199 7.45866 4.16699 7.91699 4.16699H16.2503C16.7087 4.16699 17.0837 4.54199 17.0837 5.00033V6.66699C17.0837 7.12533 16.7087 7.50033 16.2503 7.50033H7.91699C7.45866 7.50033 7.08366 7.12533 7.08366 6.66699Z" fill="black"/>
</mask>
<g mask="url(#mask0_2284_37572)">
<rect width="20" height="20" fill="#545D69"/>
</g>
</svg>
